<svg width="16" height="17" viewBox="0 0 16 17" fill="none" xmlns="http://www.w3.org/2000/svg">
<path d="M14.1891 6.41808L10.2219 5.84152L8.44844 2.24621C8.4 2.14777 8.32031 2.06808 8.22187 2.01965C7.975 1.89777 7.675 1.99933 7.55156 2.24621L5.77812 5.84152L1.81094 6.41808C1.70156 6.43371 1.60156 6.48527 1.525 6.5634C1.43244 6.65853 1.38143 6.78652 1.38319 6.91924C1.38495 7.05197 1.43933 7.17856 1.53437 7.27121L4.40469 10.0696L3.72656 14.0212C3.71066 14.1131 3.72083 14.2077 3.75592 14.2941C3.79102 14.3805 3.84963 14.4554 3.92511 14.5102C4.00059 14.5651 4.08992 14.5976 4.18297 14.6043C4.27602 14.6109 4.36907 14.5913 4.45156 14.5478L8 12.6821L11.5484 14.5478C11.6453 14.5993 11.7578 14.6165 11.8656 14.5978C12.1375 14.5509 12.3203 14.2931 12.2734 14.0212L11.5953 10.0696L14.4656 7.27121C14.5437 7.19465 14.5953 7.09465 14.6109 6.98527C14.6531 6.71183 14.4625 6.45871 14.1891 6.41808Z" fill="#FEA250"/>
</svg>
